<svg xmlns="http://www.w3.org/2000/svg" width="118.895" height="118.872" viewBox="0 0 118.895 118.872">
  <g id="PlayButton" transform="translate(-627.643 821.934)">
    <g id="Ellipse_34" data-name="Ellipse 34" transform="translate(638.643 -810.934)" fill="rgba(0,218,93,0.52)" stroke="#707070" stroke-width="1">
      <circle cx="48" cy="48" r="48" stroke="none"/>
      <circle cx="48" cy="48" r="47.5" fill="none"/>
    </g>
    <path id="Path_105" data-name="Path 105" d="M772.863-703.036l39.84,23.009-39.84,23.016Z" transform="translate(-100.737 -82.478)" fill="#fff"/>
    <path id="Path_104" data-name="Path 104" d="M683.624-821.934h6.965c1.568.187,3.14.346,4.7.567A58.047,58.047,0,0,1,726.24-807.2a58.18,58.18,0,0,1,19.384,34.469c.39,2.233.613,4.5.914,6.744v6.965a9.56,9.56,0,0,0-.2,1.112,56.553,56.553,0,0,1-3.306,15.593,59.524,59.524,0,0,1-70.183,37.531,59.545,59.545,0,0,1-44.126-68.865,58.394,58.394,0,0,1,16.127-30.611,57.965,57.965,0,0,1,32.017-16.759C679.1-821.4,681.37-821.633,683.624-821.934Zm3.459,111.489a52.083,52.083,0,0,0,52.081-51.976,52.089,52.089,0,0,0-52.034-52.139,52.083,52.083,0,0,0-52.081,51.976A52.089,52.089,0,0,0,687.083-710.445Z" fill="#00da5d"/>
  </g>
</svg>
