<svg xmlns="http://www.w3.org/2000/svg" width="610.504" height="613.55" viewBox="0 0 610.504 613.55">
  <g id="Group_4508" data-name="Group 4508" transform="translate(470.444 1085.378) rotate(-146)">
    <path id="Path_41856" data-name="Path 41856" d="M527.543,516.995c38.76-1.711,83.232-35.341,109.092-62.046,18.2-18.8,31.782-40.712,35.507-62.082,6.021-34.543-17.6-62.225-54.871-68.463-44.454-7.442-99.546,16.726-130.471,53.753C455.615,415.5,453.838,461.4,474.461,491.642,485.335,507.587,502.937,518.081,527.543,516.995Z" transform="translate(-70.094)" fill="rgba(255,255,255,0.71)"/>
    <path id="Path_41857" data-name="Path 41857" d="M784.91,520.252c-2.026-10.766-4.619-21.491-7.7-32.131-14.316-49.434-41.528-115.744-92.092-137.77-41.705-18.167-89.684.053-120.9,29.881-27.621,26.395-51.323,52.713-84.96,71.69-32.926,18.575-68.918,33.884-95.185,62-41.359,44.276-34.992,118.351-5.715,167.118C424.5,757.9,531.486,802.316,618.5,786.4c65.572-12,121.921-59.251,150.51-118.966C791.531,620.392,794.249,569.886,784.91,520.252Z" transform="translate(0 -13.241)" fill="#fff" opacity="0.58"/>
  </g>
</svg>
