<svg xmlns="http://www.w3.org/2000/svg" width="311.201" height="312.753" viewBox="0 0 311.201 312.753">
  <g id="Group_4504" data-name="Group 4504" transform="translate(311.201 188.695) rotate(146)">
    <path id="Path_41856" data-name="Path 41856" d="M34,.039C53.759.912,76.429,18.054,89.611,31.667c9.277,9.581,16.2,20.753,18.1,31.646,3.069,17.608-8.974,31.719-27.97,34.9C57.08,102,29,89.686,13.233,70.811c-15.9-19.033-16.8-42.433-6.29-57.848C12.486,4.835,21.459-.514,34,.039Z" transform="translate(18.36 132.178)" fill="rgba(255,255,255,0.71)"/>
    <path id="Path_41857" data-name="Path 41857" d="M219.283,137.306c-1.033,5.488-2.355,10.955-3.925,16.379-7.3,25.2-21.169,59-46.943,70.227-21.259,9.261-45.716-.027-61.627-15.232-14.08-13.455-26.162-26.87-43.308-36.543-16.784-9.469-35.131-17.272-48.52-31.606C-6.123,117.962-2.878,80.2,12.046,55.344,35.566,16.168,90.1-6.475,134.456,1.64c33.425,6.115,62.149,30.2,76.722,60.642C222.658,86.26,224.043,112.005,219.283,137.306Z" transform="translate(0 0)" fill="#fff" opacity="0.58"/>
  </g>
</svg>
