<svg xmlns="http://www.w3.org/2000/svg" width="70.182" height="75.036" viewBox="0 0 70.182 75.036">
  <g id="Group_4381" data-name="Group 4381" transform="translate(417.852 -191.619)">
    <path id="Path_39756" data-name="Path 39756" d="M-396.826,266.654c-1.128-.9-1.238-1.267-.694-2.686a7.886,7.886,0,0,1,.9-1.9,3.117,3.117,0,0,1,2.908-1.232,2.738,2.738,0,0,0,2.552-1.192A6.467,6.467,0,0,0-389.8,253.9H-413.83c-2.551,0-4.016-1.435-4.017-3.975q-.01-19.336,0-38.672c0-2.56,1.439-3.983,4-3.99,1.782,0,3.565,0,5.347,0h.856v-.879c0-3.784.046-7.569-.019-11.352a3.256,3.256,0,0,1,3.419-3.409c6.786.074,13.574.038,20.361.022a4.975,4.975,0,0,1,4.655,2.732c.441.782.739,1.833,1.416,2.24.65.39,1.705.113,2.582.116,1.88.005,3.76,0,5.64,0,.915,0,1.44.4,1.454,1.077.015.7-.548,1.145-1.483,1.145q-17.4,0-34.791,0h-.959c-.016.294-.042.549-.042.8q0,17.322,0,34.644c0,1.088.088,1.176,1.155,1.176h42.994c1.068,0,1.157-.089,1.157-1.175q0-17.139,0-34.278c0-1.146-.029-1.172-1.2-1.173-1.1,0-2.2.008-3.3,0-.846-.008-1.339-.43-1.342-1.117,0-.7.456-1.094,1.335-1.1,1.269-.011,2.539-.015,3.809,0a2.769,2.769,0,0,1,2.931,2.942c.012,2.222,0,4.443,0,6.665,0,.266,0,.533,0,.879.3.015.559.038.817.038,1.831,0,3.662-.006,5.493,0a3.583,3.583,0,0,1,3.886,3.876q.018,19.446,0,38.892a3.6,3.6,0,0,1-3.9,3.867q-6.739,0-13.477,0a3.165,3.165,0,0,1-.585-.017,1.091,1.091,0,0,1-.98-1.1,1.081,1.081,0,0,1,1.059-1.084c.243-.021.488-.013.732-.013h12.964c1.564,0,1.947-.384,1.948-1.942q0-3.04,0-6.079v-.829H-415.6v2.125c0,1.709-.005,3.418,0,5.127a1.4,1.4,0,0,0,1.557,1.6c.22.008.44,0,.659,0h42.628c.244,0,.489-.007.732,0,.772.032,1.195.417,1.2,1.084a1.1,1.1,0,0,1-1.249,1.123c-1.562.013-3.125,0-4.688,0h-.935a5.317,5.317,0,0,0,.267,3.918,17.353,17.353,0,0,0,2.027,2.726,1.277,1.277,0,0,0,.783.259c.627.072,1.272.031,1.887.153a3,3,0,0,1,2.344,1.983c.137.365.277.728.41,1.094.5,1.367.4,1.724-.719,2.624Zm-14.9-53.311v27.187h57.93V213.375h-4.076v.935c0,6.739-.034,13.478.022,20.217a3.082,3.082,0,0,1-3.31,3.285c-14.406-.05-28.811-.026-43.217-.026-2.2,0-3.268-1.067-3.268-3.277q0-10.145,0-20.29v-.875Zm24.234,40.593a8.706,8.706,0,0,1-1.689,6.814h12.86a8.678,8.678,0,0,1-1.711-6.814ZM-414,240.562v-.939q0-13.4,0-26.8c0-1.493.231-1.719,1.748-1.72h4.553v-1.543a1,1,0,0,0-.191-.05q-2.965-.007-5.931-.01c-1.378,0-1.779.4-1.779,1.786q0,14.243,0,28.486v.792Zm56.157-29.461h4.467c1.671,0,1.861.186,1.861,1.829q0,13.327,0,26.654v.94h1.565c.014-.132.029-.2.029-.277q0-14.645,0-29.29c0-.979-.507-1.454-1.516-1.458-1.953-.008-3.905,0-5.858,0a5.148,5.148,0,0,0-.548.057Zm-37.377,53.326H-370.3c-.172-1.081-.482-1.379-1.523-1.388-1.732-.016-3.464-.005-5.2-.005q-8.269,0-16.538,0C-394.732,263.037-395.046,263.3-395.224,264.428Zm2.294-67.736c-.3-.558-.547-1.025-.81-1.479a2.521,2.521,0,0,0-2.211-1.351c-2.856-.041-5.712-.021-8.569-.017a.756.756,0,0,0-.86.716c-.041.7-.01,1.4-.01,2.13Zm6.117.034a3.75,3.75,0,0,0-5.054-2.745c.448.812.883,1.623,1.345,2.419a.647.647,0,0,0,.427.312C-389.007,196.738-387.92,196.726-386.812,196.726Zm1.1-2.853c.512.923,1,1.807,1.5,2.685a.331.331,0,0,0,.233.151c1.131.01,2.262.007,3.436.007C-381.648,194.1-382.41,193.684-385.717,193.872Z" transform="translate(0 0)" fill="#00da5d"/>
    <path id="Path_39757" data-name="Path 39757" d="M-295.325,289.23c-1.82-.52-1.675-1.891-1.623-3.231.024-.627,0-1.255,0-1.912-.928.1-1.689.3-2.078,1.189a3.348,3.348,0,0,1-.574.844,1.02,1.02,0,0,1-1.437.233,1.008,1.008,0,0,1-.38-1.409,19.4,19.4,0,0,1,1.441-2.2,1.508,1.508,0,0,1,.752-.4c.739-.23,1.488-.424,2.275-.643,0-1.782.026-3.537-.013-5.291a1.607,1.607,0,0,1,.857-1.556c.971-.593,1.909-1.241,2.917-1.9-.4-.47-.762-.863-1.095-1.276a1.129,1.129,0,0,1,.062-1.683,1.105,1.105,0,0,1,1.614.23c.429.465.833.952,1.34,1.534,1.352-1.421,2.763-1.542,4.123.025.52-.592.941-1.093,1.386-1.572a1.1,1.1,0,0,1,1.614-.2,1.117,1.117,0,0,1,.079,1.629c-.163.213-.35.407-.524.611s-.344.409-.592.706c.808.531,1.558,1.105,2.38,1.542a2.356,2.356,0,0,1,1.4,2.527c-.112,1.528-.027,3.07-.027,4.665.753.214,1.511.376,2.223.654a2.776,2.776,0,0,1,1.073.781,12.658,12.658,0,0,1,1.087,1.645,1.118,1.118,0,0,1-.314,1.6,1.086,1.086,0,0,1-1.527-.386,4.846,4.846,0,0,1-.558-.856c-.387-.849-1.14-.945-1.983-1.042,0,.989-.057,1.942.016,2.885a1.822,1.822,0,0,1-1.1,2.01,2.839,2.839,0,0,0-.4.287c.087.1.143.212.232.259,1.588.831,1.286,2.3,1.2,3.662a1.091,1.091,0,0,1-1.156,1,1.124,1.124,0,0,1-1.038-1.121,1.584,1.584,0,0,1,.008-.511c.261-.991-.5-1.379-1.1-1.833-.106-.079-.411.014-.569.114-.908.571-1.83,1.127-2.687,1.768a1.673,1.673,0,0,1-2.3.017,27.958,27.958,0,0,0-2.506-1.644c-.239-.146-.681-.329-.8-.226a4.4,4.4,0,0,0-1.068,1.266c-.15.284.006.718-.019,1.082a1.1,1.1,0,0,1-1.065,1.088,1.1,1.1,0,0,1-1.129-1.032,12.819,12.819,0,0,1,0-2.192,1.7,1.7,0,0,1,.523-.832A12.679,12.679,0,0,1-295.325,289.23Zm.583-11.439c0,3.143-.009,6.041.019,8.939a.93.93,0,0,0,.421.6c1.536,1.034,3.1,2.033,4.63,3.067a.736.736,0,0,0,.965.005q2.271-1.533,4.585-3a.974.974,0,0,0,.5-.949c-.019-2.634-.009-5.267-.011-7.9,0-.179-.025-.357-.05-.71C-287.37,280.519-291,280.523-294.742,277.791Zm9.948-1.911c-1.144-.753-2.346-1.486-3.48-2.313a1.254,1.254,0,0,0-1.784-.018c-.718.576-1.538,1.024-2.309,1.533-.412.272-.816.556-1.19.812C-290.624,278.207-287.716,278.188-284.794,275.88Z" transform="translate(-93.577 -62.863)" fill="#00da5d"/>
    <path id="Path_39758" data-name="Path 39758" d="M-314.737,235.322a7.533,7.533,0,0,1-.338.859c-1.05,1.84-2.1,3.68-3.171,5.509-.458.784-1.173.954-1.756.451a1.006,1.006,0,0,1-.281-1.32c1.119-2,2.265-3.977,3.42-5.953a.944.944,0,0,1,1.269-.417C-315.233,234.629-314.992,235.051-314.737,235.322Z" transform="translate(-78.399 -34.382)" fill="#00da5d"/>
    <path id="Path_39759" data-name="Path 39759" d="M-341.666,242.8c.334.393.65.732.928,1.1a1.074,1.074,0,0,1-.092,1.567,1.065,1.065,0,0,1-1.563-.117c-.549-.586-1.069-1.2-1.581-1.821a1.08,1.08,0,0,1,0-1.472c.5-.626,1.035-1.232,1.585-1.818a1.048,1.048,0,0,1,1.559-.124,1.074,1.074,0,0,1,.1,1.567c-.145.2-.314.373-.47.559C-341.343,242.4-341.48,242.572-341.666,242.8Z" transform="translate(-59.212 -38.785)" fill="#00da5d"/>
    <path id="Path_39760" data-name="Path 39760" d="M-286.264,242.781c-.326-.386-.653-.744-.946-1.128a1.061,1.061,0,0,1,.122-1.561,1.028,1.028,0,0,1,1.505.095c.572.6,1.118,1.225,1.636,1.871a1.082,1.082,0,0,1-.024,1.473c-.5.6-1,1.2-1.532,1.768a1.08,1.08,0,0,1-1.616.144,1.069,1.069,0,0,1-.067-1.567C-286.9,243.51-286.592,243.169-286.264,242.781Z" transform="translate(-104.895 -38.776)" fill="#00da5d"/>
    <path id="Path_39761" data-name="Path 39761" d="M-247.957,472.886c-.437,0-.876.02-1.312,0a1.059,1.059,0,0,1-1.051-1.077,1.033,1.033,0,0,1,1.018-1.1c.9-.031,1.8-.031,2.7,0a1.033,1.033,0,0,1,1.014,1.1,1.059,1.059,0,0,1-1.055,1.073C-247.081,472.906-247.52,472.886-247.957,472.886Z" transform="translate(-134.807 -224.552)" fill="#00da5d"/>
    <path id="Path_39762" data-name="Path 39762" d="M-241.717,333.76a4.953,4.953,0,0,1-.1.693,1.019,1.019,0,0,1-1.064.821.994.994,0,0,1-1.038-.85,4.471,4.471,0,0,1-.048-1.3,1.048,1.048,0,0,1,1.115-1.026,1.066,1.066,0,0,1,1.085.983A6,6,0,0,1-241.717,333.76Z" transform="translate(-139.9 -113.037)" fill="#00da5d"/>
  </g>
</svg>
