<svg xmlns="http://www.w3.org/2000/svg" width="66.644" height="62.026" viewBox="0 0 66.644 62.026">
  <g id="Group_93" data-name="Group 93" transform="translate(4)">
    <path id="Path_88" data-name="Path 88" d="M-298.5,531.747V488.565c.686-2.31,2.552-3.718,5.436-3.71,18.577.047,37.155.024,55.733.024.325,0,.651-.007.975.009a4.709,4.709,0,0,1,4.5,4.6q.01,20.713.005,41.426a4.277,4.277,0,0,1-.721,2.392,4.932,4.932,0,0,1-4.434,2.239q-9.983,0-19.965,0c-.871,0-.873,0-.425.78q2,3.463,4,6.924a2.855,2.855,0,0,1,.466,1.2,2.175,2.175,0,0,1-2.394,2.424q-9.787.009-19.575,0c-2.272,0-3.229-1.673-2.092-3.642q2.015-3.491,4.033-6.981c.4-.7.4-.707-.422-.707q-9.95,0-19.9,0A4.91,4.91,0,0,1-298.5,531.747Zm33.245-7.2H-237.1c.983,0,.984,0,.984-.962q0-16.547,0-33.094c0-1.208-.039-1.248-1.238-1.248h-55.721c-1.163,0-1.211.049-1.211,1.209q0,16.547,0,33.094c0,1,0,1,1.01,1Zm.088,4.365h-27.952c-.238,0-.477,0-.715.009a.429.429,0,0,0-.416.256,1.316,1.316,0,0,0,1.222,2h55.643q.325,0,.65-.007a.488.488,0,0,0,.454-.208,2.538,2.538,0,0,0,.1-1.775c-.1-.457-.627-.271-.969-.271Q-251.159,528.908-265.168,528.914Zm-.037,13.6c1.882,0,3.765-.009,5.647.006.534,0,.669-.122.375-.622q-1.709-2.91-3.375-5.844a.906.906,0,0,0-.89-.509q-1.752.023-3.5,0a.906.906,0,0,0-.892.505q-1.67,2.932-3.375,5.844c-.286.488-.179.631.369.626C-268.969,542.5-267.087,542.514-265.2,542.514Z" transform="translate(294.5 -484.855)" fill="#fff"/>
    <g id="Group_4514" data-name="Group 4514" transform="matrix(0.999, 0.035, -0.035, 0.999, -1.33, 1.967)">
      <path id="Path_89" data-name="Path 89" d="M-127.691,523.82a2.073,2.073,0,0,1-.186.812q-3.351,10.077-6.708,20.153c-.032.1-.068.195-.1.291a2.227,2.227,0,0,1-2.642,1.307c-1.242-.253-1.874-1.126-1.534-2.163.752-2.3,1.516-4.589,2.279-6.882q2.262-6.807,4.526-13.614a2.027,2.027,0,0,1,1.17-1.388C-129.444,521.716-127.7,522.505-127.691,523.82Z" transform="translate(163.125 -515.658)" fill="#fff"/>
      <path id="Path_90" data-name="Path 90" d="M-67.84,561.366c-.055-.485.316-.856.81-1.2,2.287-1.573,4.559-3.158,6.862-4.72.426-.289.431-.451,0-.742-2.35-1.594-4.668-3.209-7-4.817a1.2,1.2,0,0,1-.582-1.564,1.927,1.927,0,0,1,1.607-1,2.6,2.6,0,0,1,1.914.383q4.611,3.164,9.194,6.348c.879.614.829,1.472-.1,2.129-1.5,1.062-3.024,2.1-4.541,3.148-1.471,1.016-2.934,2.037-4.421,3.041a2.872,2.872,0,0,1-2.89.209A1.291,1.291,0,0,1-67.84,561.366Z" transform="translate(100.854 -536.459)" fill="#fff"/>
      <path id="Path_91" data-name="Path 91" d="M-209.236,548.766c.044.491-.311.853-.788,1.181-2.3,1.584-4.587,3.178-6.9,4.751-.408.277-.414.43,0,.71,2.3,1.562,4.575,3.145,6.859,4.719a1.687,1.687,0,0,1,.833.986,1.414,1.414,0,0,1-1.13,1.577,2.848,2.848,0,0,1-2.518-.278c-.819-.533-1.605-1.091-2.4-1.642q-3.236-2.239-6.467-4.482c-1.2-.834-1.213-1.631-.024-2.453q4.386-3.032,8.78-6.058a2.825,2.825,0,0,1,3.174-.068A1.153,1.153,0,0,1-209.236,548.766Z" transform="translate(235.814 -536.434)" fill="#fff"/>
    </g>
  </g>
</svg>
