<svg xmlns="http://www.w3.org/2000/svg" width="66.318" height="66.297" viewBox="0 0 66.318 66.297">
  <g id="Group_125" data-name="Group 125" transform="translate(-14.4 484)">
    <path id="Path_101" data-name="Path 101" d="M19.968-484h55.16c.053.034.1.088.158.1a6.71,6.71,0,0,1,5.432,6.869c-.055,12.926-.021,25.853-.023,38.779a6.523,6.523,0,0,1-6.842,6.822q-9.516,0-19.033,0H54.07v5.956c.37,0,.692,0,1.014,0a6.535,6.535,0,0,1,6.654,5.667c.237,1.472-.3,2.1-1.794,2.1H35.15c-.173,0-.346.008-.518-.005a1.328,1.328,0,0,1-1.317-1.452,6.433,6.433,0,0,1,5.67-6.219c.677-.082,1.362-.094,2.041-.137v-5.91H21.109a6.171,6.171,0,0,1-5.354-2.614A17.419,17.419,0,0,1,14.4-437v-41.434a1.682,1.682,0,0,0,.119-.286,6.064,6.064,0,0,1,2.595-4.015A19.668,19.668,0,0,1,19.968-484Zm58.138,39.62v-.713q0-15.99,0-31.981a3.951,3.951,0,0,0-4.337-4.336q-26.219,0-52.439,0a3.951,3.951,0,0,0-4.339,4.335q0,15.991,0,31.981v.685h5.956v-.789c0-6.042-.008-12.084.015-18.127a3.578,3.578,0,0,1,.353-1.474c.89-1.867,1.832-3.709,2.757-5.559q1.069-2.139,2.144-4.276a1.3,1.3,0,0,1,1.221-.809,1.291,1.291,0,0,1,1.173.782c.05.1.1.192.146.288,1.611,3.217,3.233,6.43,4.82,9.659a3.2,3.2,0,0,1,.305,1.358c.02,6.064.013,12.128.013,18.191v.736h6.46c.011-.157.022-.264.025-.371a100.686,100.686,0,0,1,1.114-13.727,1.143,1.143,0,0,0-.331-.819,6.251,6.251,0,0,1-1.2-7.289c1.454-2.788,3.08-5.487,4.666-8.2a1.28,1.28,0,0,1,2.336.086c1.446,2.475,2.889,4.953,4.3,7.45a6.451,6.451,0,0,1-1.3,8.336,1.151,1.151,0,0,0-.252.831c.3,3.8.638,7.6.939,11.407.061.764.009,1.536.009,2.3H59.2v-.816q0-14.243,0-28.485c0-1.279.441-1.726,1.7-1.727q4.694,0,9.387,0c1.458,0,1.857.394,1.857,1.834q0,14.21,0,28.42v.78a2.8,2.8,0,0,0,.3.038C74.306-444.38,76.159-444.38,78.105-444.38ZM16.99-441.768c0,1.142,0,2.218,0,3.294,0,2.922,1.54,4.454,4.477,4.454H73.63c.3,0,.605,0,.905-.025a3.608,3.608,0,0,0,3.4-2.957,37.856,37.856,0,0,0,.043-4.765Zm52.569-25.918c-.445,0-.81.012-1.173,0a1.33,1.33,0,0,1-1.406-1.3,1.335,1.335,0,0,1,1.424-1.283c.377-.014.755,0,1.12,0v-2.548H61.838v28.442c2.5,0,4.962,0,7.419,0a2.193,2.193,0,0,0,.263-.033v-2.554c-.4,0-.765.012-1.127,0a1.332,1.332,0,0,1-1.413-1.294,1.333,1.333,0,0,1,1.417-1.289c.378-.014.756,0,1.13,0v-5.18c-.349,0-.667,0-.985,0-.946-.013-1.549-.508-1.562-1.277-.013-.79.606-1.3,1.592-1.312.315,0,.63,0,.939,0v-3.886c-.414,0-.78.014-1.144,0a1.327,1.327,0,0,1-1.387-1.319,1.327,1.327,0,0,1,1.378-1.262c.381-.018.764,0,1.175,0,.011-.17.025-.273.025-.377C69.56-465.316,69.559-466.457,69.559-467.686Zm-21.8-3.969c-.436.755-.8,1.387-1.167,2.021-.781,1.363-1.6,2.705-2.326,4.1a3.78,3.78,0,0,0,.782,4.4,3.868,3.868,0,0,0,4.48.7,3.75,3.75,0,0,0,2.023-4.037,12.206,12.206,0,0,0-1.271-2.792C49.494-468.718,48.639-470.135,47.762-471.655ZM58.948-420.32a5.981,5.981,0,0,0-.279-.614,3.836,3.836,0,0,0-3.491-1.949q-7.6-.007-15.2,0a5.494,5.494,0,0,0-.645.033,3.657,3.657,0,0,0-3.123,2.53ZM25.58-462.476v18.045h2.512v-18.045Zm7.68,18.067v-18.045H30.748v18.045ZM43.7-431.4v5.887h7.687V-431.4Zm2.215-26.116-.826,7.925h4.928l-.8-7.925ZM29.419-471.259l-3.06,6.124h6.122Zm15.608,26.833h5.02v-2.51h-5.02Z" fill="#00da5d"/>
    <path id="Path_102" data-name="Path 102" d="M184.368-204.625c-1.187,0-2.373.007-3.56,0-.939-.007-1.544-.523-1.544-1.293s.606-1.289,1.545-1.292q3.624-.011,7.249,0c.939,0,1.544.523,1.544,1.293s-.606,1.286-1.545,1.292C186.827-204.619,185.6-204.625,184.368-204.625Z" transform="translate(-138.18 -231.984)" fill="#00da5d"/>
    <path id="Path_103" data-name="Path 103" d="M261.833-205.844a1.327,1.327,0,0,1-1.293,1.276,1.327,1.327,0,0,1-1.276-1.293,1.327,1.327,0,0,1,1.293-1.276A1.327,1.327,0,0,1,261.833-205.844Z" transform="translate(-205.232 -232.053)" fill="#00da5d"/>
  </g>
</svg>
