<svg xmlns="http://www.w3.org/2000/svg" width="78.359" height="56.927" viewBox="0 0 78.359 56.927">
  <g id="Group_4357" data-name="Group 4357" transform="translate(-539.595 2105.234)">
    <path id="Path_39802" data-name="Path 39802" d="M778.165-1987.5c-.255,1.244-.431,2.51-.777,3.728a18.478,18.478,0,0,1-15.932,13.279,18.59,18.59,0,0,1-20.3-15.569,18.538,18.538,0,0,1,15.468-21.043,18.566,18.566,0,0,1,21.145,14.6c.159.744.267,1.5.4,2.249Zm-32.223-1.395a13.529,13.529,0,0,0,13.529,13.536,13.538,13.538,0,0,0,13.674-13.473,13.568,13.568,0,0,0-13.535-13.55A13.558,13.558,0,0,0,745.941-1988.894Z" transform="translate(-160.211 -77.91)" fill="#fff"/>
    <path id="Path_39803" data-name="Path 39803" d="M659.043-2100.184h-7.561v32.257h2.352v4.886a1.9,1.9,0,0,1-.359.069c-1.557,0-3.114.025-4.671-.006a2.39,2.39,0,0,1-2.356-2.342c-.011-.229-.006-.459-.006-.689,0-12.048.03-24.094-.028-36.142a2.809,2.809,0,0,1,3.083-3.085c12.506.047,25.013.025,37.519.026,2.1,0,3.023.924,3.024,3.04q0,6.01,0,12.022v.9h-4.961v-10.907h-7.168v.9c0,3.7.007,7.4-.008,11.1a4.711,4.711,0,0,1-.19,1.505,2.473,2.473,0,0,1-3.734,1.16c-1.727-1.133-3.428-2.308-5.121-3.492a.8.8,0,0,0-1.127.009c-1.458,1.117-2.962,2.172-4.434,3.272a2.531,2.531,0,0,1-2.854.375,2.558,2.558,0,0,1-1.4-2.519q.011-5.666,0-11.333Z" transform="translate(-85.001)" fill="#fff"/>
    <path id="Path_39804" data-name="Path 39804" d="M539.595-2008.6v-4.808h15.354v4.808Z" transform="translate(0 -73.071)" fill="#fff"/>
    <path id="Path_39805" data-name="Path 39805" d="M577.562-2072.667v4.914H568c0-1.509-.011-3,.018-4.5a.577.577,0,0,1,.4-.4C571.442-2072.673,574.469-2072.667,577.562-2072.667Z" transform="translate(-22.6 -25.915)" fill="#fff"/>
    <path id="Path_39806" data-name="Path 39806" d="M577.593-1949.2h-9.6v-3.4c0-1.508,0-1.508,1.485-1.508,2.447,0,4.895.014,7.342-.01.582-.006.807.155.787.774C577.563-1951.977,577.593-1950.607,577.593-1949.2Z" transform="translate(-22.598 -120.251)" fill="#fff"/>
    <path id="Path_39807" data-name="Path 39807" d="M704.024-1917.548h-4.231c0-1.584-.01-3.1.022-4.618,0-.111.313-.3.485-.307,1.069-.029,2.139-.036,3.207.006a.69.69,0,0,1,.495.453C704.041-1920.568,704.024-1919.121,704.024-1917.548Z" transform="translate(-127.478 -145.415)" fill="#fff"/>
    <path id="Path_39808" data-name="Path 39808" d="M811.962-1949.015l-3.883,4.156c-1.514,1.621-3.022,3.248-4.544,4.862a2.444,2.444,0,0,1-3.493.349c-1.6-1.133-3.19-2.279-4.849-3.465l2.885-4.032c.912.646,1.8,1.229,2.635,1.886.455.36.7.272,1.065-.119,2.142-2.324,4.308-4.627,6.541-7.016Z" transform="translate(-203.394 -121.624)" fill="#fff"/>
  </g>
</svg>
