<svg xmlns="http://www.w3.org/2000/svg" width="57.074" height="63.493" viewBox="0 0 57.074 63.493">
  <g id="Group_4397" data-name="Group 4397" transform="translate(124.357 759.565)">
    <path id="Path_39810" data-name="Path 39810" d="M-75.237-759.565a1.944,1.944,0,0,1,.624,1.676q0,3.29,0,6.58c0,.891,0,.891.877.907a6.331,6.331,0,0,1,6.283,5.07,9.6,9.6,0,0,1,.162,1.911q.015,15.022.005,30.045c0,3.376-1.747,5.856-4.693,6.646a16.612,16.612,0,0,1-4.754.178,1.172,1.172,0,0,1-1.022-1.16,1.305,1.305,0,0,1,.887-1.346,3.732,3.732,0,0,1,1.23-.111c.683,0,1.366.007,2.048,0a3.633,3.633,0,0,0,3.645-3.554c.023-.558-.01-1.118.011-1.676.015-.394-.126-.586-.536-.549-.144.013-.289,0-.434,0h-49.91c-.943,0-.949,0-.942.942a10.083,10.083,0,0,0,.07,1.609,3.56,3.56,0,0,0,3.806,3.229q15.488.006,30.976.005a4.736,4.736,0,0,1,.985.076,1.241,1.241,0,0,1,1.042,1.449,1.239,1.239,0,0,1-1.266,1.125q-1.4.034-2.793,0c-.433-.009-.6.162-.583.584.018.6.013,1.2,0,1.8-.006.359.141.488.507.538a6.237,6.237,0,0,1,5.534,6.039,1.283,1.283,0,0,1-1.365,1.474q-10.988.009-21.975,0a1.245,1.245,0,0,1-1.367-1.4,6.219,6.219,0,0,1,5.508-6.108c.464-.052.6-.206.582-.646a16.08,16.08,0,0,1,0-1.675c.024-.46-.147-.617-.607-.611-1.448.022-2.9.008-4.345.008q-5.463,0-10.926,0a6.22,6.22,0,0,1-6.355-6.363c0-10.346.048-20.693-.032-31.038a6.42,6.42,0,0,1,6.414-6.492c.942-.019.943-.018.943-.949,0-2.276.012-4.552-.008-6.828a1.708,1.708,0,0,1,.547-1.387Zm-20.607,10.47c-5.938,0-11.876.007-17.814-.011-.581,0-.8.14-.783.756.04,1.592.019,3.186.01,4.779a1.258,1.258,0,0,1-1.281,1.425A1.263,1.263,0,0,1-117-743.567c-.008-1.2-.011-2.4,0-3.6,0-.377-.1-.552-.518-.573a3.742,3.742,0,0,0-4.232,3.885c-.026,8.545-.008,17.09-.018,25.635,0,.459.154.623.611.615,1.117-.021,2.236-.037,3.351.006.615.024.821-.151.816-.8-.028-4.117-.015-8.235-.014-12.352,0-1.014-.014-2.028.008-3.041a1.226,1.226,0,0,1,1.321-1.254c.776.02,1.239.553,1.24,1.465q.007,7.573,0,15.145c0,.816,0,.819.828.819h35.5c.827,0,.83,0,.83-.817q0-14.928,0-29.856c0-.808,0-.81-.827-.81Zm0-8.068H-113.53c-.9,0-.9,0-.9.863q0,1.862,0,3.724c0,.821,0,.824.826.824q5.555,0,11.11,0,12.227,0,24.454.01c.581,0,.806-.149.786-.764-.042-1.281-.012-2.565-.013-3.848,0-.809,0-.811-.825-.811Zm21.227,24.416c0,4.778.01,9.556-.012,14.334,0,.625.184.84.813.813,1.032-.045,2.069-.04,3.1,0,.583.022.786-.148.785-.762q-.027-12.752-.014-25.5a3.679,3.679,0,0,0-3.856-3.865c-.813,0-.817,0-.817.836Q-74.615-739.821-74.614-732.747ZM-95.86-698.64q4.4,0,8.806,0c.2,0,.468.107.578-.087.124-.219-.1-.426-.216-.606a3.722,3.722,0,0,0-3.269-1.694q-5.891-.025-11.782,0a3.691,3.691,0,0,0-3.319,1.827c-.312.51-.281.562.335.562Q-100.294-698.638-95.86-698.64Zm.074-5.058c1.013,0,2.026-.01,3.039.005.417.006.606-.137.587-.576-.025-.578-.019-1.158,0-1.736.011-.381-.155-.506-.519-.5-2.067.009-4.135.012-6.2,0-.441,0-.585.183-.573.595.016.537.02,1.076,0,1.612-.018.461.188.619.632.611C-97.812-703.71-96.8-703.7-95.786-703.7Z" transform="translate(0 0)" fill="#fff"/>
    <path id="Path_39811" data-name="Path 39811" d="M94.524-386.858a1.319,1.319,0,0,1,1.356-1.251A1.3,1.3,0,0,1,97.1-386.73a1.268,1.268,0,0,1-1.349,1.239A1.281,1.281,0,0,1,94.524-386.858Z" transform="translate(-191.65 -325.243)" fill="#fff"/>
    <path id="Path_39812" data-name="Path 39812" d="M211.885-352.838a1.264,1.264,0,0,1-1.3,1.286,1.275,1.275,0,0,1-1.273-1.319,1.324,1.324,0,0,1,1.309-1.3A1.3,1.3,0,0,1,211.885-352.838Z" transform="translate(-292.157 -354.96)" fill="#fff"/>
    <path id="Path_39813" data-name="Path 39813" d="M-2.671-588.995a1.308,1.308,0,0,1-.677,1.235,1.157,1.157,0,0,1-1.29-.036,3.286,3.286,0,0,1-.523-.433q-2.485-2.475-4.961-4.959a1.422,1.422,0,0,1-.018-2.348Q-7.579-598.11-5-600.671a1.285,1.285,0,0,1,1.683-.3,1.234,1.234,0,0,1,.629,1.368,1.829,1.829,0,0,1-.616.983c-1.27,1.275-2.534,2.558-3.825,3.811-.362.351-.32.566.018.9,1.289,1.257,2.553,2.539,3.825,3.812A1.586,1.586,0,0,1-2.671-588.995Z" transform="translate(-99.473 -138.692)" fill="#fff"/>
    <path id="Path_39814" data-name="Path 39814" d="M156.706-587.563a1.374,1.374,0,0,1-1.179-.786,1.193,1.193,0,0,1,.245-1.428c.6-.627,1.223-1.232,1.833-1.85.741-.75,1.458-1.524,2.224-2.247.388-.366.419-.6.014-.989-1.353-1.306-2.679-2.641-3.993-3.987a1.3,1.3,0,0,1,.492-2.233,1.188,1.188,0,0,1,1.26.3c1.849,1.834,3.7,3.67,5.522,5.527a1.2,1.2,0,0,1,0,1.785c-1.82,1.862-3.672,3.694-5.52,5.529A1.392,1.392,0,0,1,156.706-587.563Z" transform="translate(-244.947 -138.708)" fill="#fff"/>
    <path id="Path_39815" data-name="Path 39815" d="M76.568-586.643a1.32,1.32,0,0,1-1.27-1.83c.315-.83.7-1.632,1.065-2.444q1.809-4.082,3.623-8.162a1.4,1.4,0,0,1,1.408-1.009,1.321,1.321,0,0,1,1.181,1.031,1.352,1.352,0,0,1-.14.96q-2.324,5.245-4.657,10.486A1.461,1.461,0,0,1,76.568-586.643Z" transform="translate(-174.732 -139.629)" fill="#fff"/>
    <path id="Path_39816" data-name="Path 39816" d="M-63.931-601.39a1.243,1.243,0,0,1,1.3,1.269,1.244,1.244,0,0,1-1.255,1.316,1.25,1.25,0,0,1-1.306-1.268A1.249,1.249,0,0,1-63.931-601.39Z" transform="translate(-51.808 -138.497)" fill="#fff"/>
    <path id="Path_39817" data-name="Path 39817" d="M111.18-726.269c-2.048,0-4.1.009-6.144,0-.934-.006-1.511-.5-1.541-1.269a1.3,1.3,0,0,1,1.405-1.386c1.158-.021,2.317-.007,3.475-.007q4.531,0,9.061,0a1.4,1.4,0,0,1,1.339.732,1.2,1.2,0,0,1-.055,1.295,1.5,1.5,0,0,1-1.4.642Z" transform="translate(-199.506 -26.815)" fill="#fff"/>
    <path id="Path_39818" data-name="Path 39818" d="M45.351-727.508a1.414,1.414,0,0,1-1.3,1.334,1.368,1.368,0,0,1-1.343-1.278,1.368,1.368,0,0,1,1.32-1.361A1.377,1.377,0,0,1,45.351-727.508Z" transform="translate(-146.285 -26.926)" fill="#fff"/>
    <path id="Path_39819" data-name="Path 39819" d="M6.257-727.584a1.333,1.333,0,0,1,1.371-1.231,1.333,1.333,0,0,1,1.23,1.43,1.355,1.355,0,0,1-1.4,1.2A1.343,1.343,0,0,1,6.257-727.584Z" transform="translate(-114.362 -26.923)" fill="#fff"/>
    <path id="Path_39820" data-name="Path 39820" d="M-27.639-727.462a1.315,1.315,0,0,1-1.324,1.285,1.348,1.348,0,0,1-1.262-1.358,1.322,1.322,0,0,1,1.333-1.279A1.3,1.3,0,0,1-27.639-727.462Z" transform="translate(-82.422 -26.925)" fill="#fff"/>
  </g>
</svg>
