<svg xmlns="http://www.w3.org/2000/svg" width="61.013" height="61.013" viewBox="0 0 61.013 61.013">
  <g id="Group_4356" data-name="Group 4356" transform="translate(254.031 2350.943)">
    <path id="Path_39788" data-name="Path 39788" d="M-254.031-2306.375v-40.279a2.159,2.159,0,0,0,.111-.273,5.048,5.048,0,0,1,5.134-4.014q25.287,0,50.574,0a5.042,5.042,0,0,1,5.192,5.184q0,19.211,0,38.422a5.108,5.108,0,0,1-.063.948,5.1,5.1,0,0,1-5.232,4.277q-8.071.015-16.143,0h-.78l.765,6.087c.818,0,1.552-.023,2.283,0a3.016,3.016,0,0,1,2.837,2.373,3.073,3.073,0,0,1-1.665,3.422c-.23.11-.472.194-.709.291h-23.6a.781.781,0,0,0-.15-.094,3.022,3.022,0,0,1-2.239-3.5,3.039,3.039,0,0,1,3.2-2.509c.631-.006,1.263,0,1.942,0l.755-6.078h-.816q-8.034,0-16.068,0a5.166,5.166,0,0,1-4.95-3.155C-253.8-2305.626-253.9-2306-254.031-2306.375Zm58.968-34.336h-56.9v28.349H-240a18.447,18.447,0,0,1,4.944-22.325,18.391,18.391,0,0,1,21.2-1.3,17.773,17.773,0,0,1,7.213,8.475,18.2,18.2,0,0,1-.429,15.144h12Zm-28.522,28.39c4.487,0,8.974-.01,13.461.013a.962.962,0,0,0,1.009-.594,16.182,16.182,0,0,0,1.657-10.042,16.235,16.235,0,0,0-19.053-13.486,16.279,16.279,0,0,0-11.426,23.526.968.968,0,0,0,1.009.595C-232.479-2312.331-228.032-2312.322-223.585-2312.322Zm28.446,2.113h-56.853c0,1.08-.032,2.113.01,3.142a2.94,2.94,0,0,0,1.035,2.137,3.442,3.442,0,0,0,2.437.746q24.986-.013,49.972-.007c.218,0,.437,0,.655-.014a2.818,2.818,0,0,0,2.716-2.4A32.432,32.432,0,0,0-195.139-2310.209Zm.067-32.635c0-1.145.039-2.234-.013-3.318a2.784,2.784,0,0,0-.954-1.927,3.429,3.429,0,0,0-2.47-.829q-25.018.007-50.036,0c-.159,0-.318,0-.476.006a2.8,2.8,0,0,0-2.755,2.065,31.7,31.7,0,0,0-.3,4Zm-35.416,46.775h13.929l-.753-6.008h-12.428Zm6.994,2.08h-10.778c-.159,0-.319-.009-.476.005a.973.973,0,0,0-.944.9.974.974,0,0,0,.8,1.086,3.089,3.089,0,0,0,.651.038q10.718,0,21.436,0a3.073,3.073,0,0,0,.651-.038.974.974,0,0,0,.8-1.085.974.974,0,0,0-.944-.9c-.158-.014-.317-.005-.476-.005Z" transform="translate(0)" fill="#fff"/>
    <path id="Path_39789" data-name="Path 39789" d="M-29.827-2164.746l1.425,1.483c-.105.111-.232.251-.365.385-1.094,1.1-2.184,2.2-3.29,3.281a.688.688,0,0,0-.225.815,3.01,3.01,0,0,1-2.282,3.854,3.056,3.056,0,0,1-3.688-2.716,3.1,3.1,0,0,1,2.92-3.331,1.663,1.663,0,0,1,.76.094c.583.269.923,0,1.309-.4C-32.153-2162.446-31-2163.567-29.827-2164.746Zm-5.365,7.817a.942.942,0,0,0,.98-.956.946.946,0,0,0-.985-1.01.947.947,0,0,0-.98,1.014A.944.944,0,0,0-35.192-2156.929Z" transform="translate(-188.329 -162.526)" fill="#fff"/>
    <path id="Path_39790" data-name="Path 39790" d="M-67.174-2174.559l-.564,1.891a6.2,6.2,0,0,0-7.882,5.839h-1.929C-77.908-2171.387-72.975-2176.3-67.174-2174.559Z" transform="translate(-154.03 -153.647)" fill="#fff"/>
    <path id="Path_39791" data-name="Path 39791" d="M-19.846-2221.064H-21.88v-2.052c.591,0,1.2-.01,1.8.013.082,0,.221.174.225.271C-19.835-2222.264-19.846-2221.694-19.846-2221.064Z" transform="translate(-202.638 -111.574)" fill="#fff"/>
    <path id="Path_39792" data-name="Path 39792" d="M-124.3-2119.6v2c-.607,0-1.194.01-1.779-.011-.09,0-.184-.153-.257-.249-.029-.039-.007-.115-.011-.174C-126.445-2119.744-126.158-2119.968-124.3-2119.6Z" transform="translate(-111.436 -201.801)" fill="#fff"/>
    <path id="Path_39793" data-name="Path 39793" d="M81.987-2117.133v-2.084c.6,0,1.168-.021,1.732.017.114.008.29.235.3.373a6.505,6.505,0,0,1,0,1.3.541.541,0,0,1-.36.373C83.13-2117.108,82.6-2117.133,81.987-2117.133Z" transform="translate(-293.3 -202.262)" fill="#fff"/>
    <path id="Path_39794" data-name="Path 39794" d="M-75.308-2212.059l1.025,1.773-1.763,1.028-1.04-1.765Z" transform="translate(-154.45 -121.228)" fill="#fff"/>
    <path id="Path_39795" data-name="Path 39795" d="M28.719-2209.244l-1.774-1.031,1.023-1.77,1.775,1.019Z" transform="translate(-245.256 -121.24)" fill="#fff"/>
    <path id="Path_39796" data-name="Path 39796" d="M64.992-2172.924l1.767-1.022,1.034,1.765-1.774,1.03Z" transform="translate(-278.466 -154.495)" fill="#fff"/>
    <path id="Path_39797" data-name="Path 39797" d="M-114.089-2174.03l1.776,1.03-1.026,1.77-1.772-1.022Z" transform="translate(-121.259 -154.422)" fill="#fff"/>
    <path id="Path_39798" data-name="Path 39798" d="M164.247-2014.812v1.985h-1.984v-1.985Z" transform="translate(-363.371 -293.399)" fill="#fff" stroke="#00da5d" stroke-width="0.75"/>
    <path id="Path_39799" data-name="Path 39799" d="M-141.99-2316.729v-1.948h2.02v1.948Z" transform="translate(-97.797 -28.165)" fill="#fff"/>
    <path id="Path_39800" data-name="Path 39800" d="M-171.929-2316.81h-2v-1.979h2Z" transform="translate(-69.919 -28.066)" fill="#fff"/>
    <path id="Path_39801" data-name="Path 39801" d="M-205.977-2316.756v-1.959h1.983v1.959Z" transform="translate(-41.945 -28.131)" fill="#fff"/>
  </g>
</svg>
