<svg xmlns="http://www.w3.org/2000/svg" width="50.475" height="64.267" viewBox="0 0 50.475 64.267">
  <g id="Group_4354" data-name="Group 4354" transform="translate(-75.783 1049.999)">
    <path id="Path_39779" data-name="Path 39779" d="M81.191-985.732a15.594,15.594,0,0,1-1.878-.639,5.622,5.622,0,0,1-3.53-5.365q.006-21.668.006-43.335a6.443,6.443,0,0,1,6.5-6.475c1.672-.011,3.345,0,5.017,0h.684c0-.781,0-1.506,0-2.231,0-1,.381-1.49,1.4-1.549,1.334-.077,2.674-.075,4.01-.043a.941.941,0,0,0,1.021-.655,7.122,7.122,0,0,1,7.6-3.881,6.829,6.829,0,0,1,5.609,4.164.8.8,0,0,0,.611.342c1.212.033,2.425.009,3.637.02a5.244,5.244,0,0,1,1.058.1,1.28,1.28,0,0,1,1.1,1.38c.008.752,0,1.5,0,2.355h.685c1.651,0,3.3-.006,4.954,0a6.45,6.45,0,0,1,6.562,6.54c.006,14.383-.024,28.765.023,43.147a6.108,6.108,0,0,1-5.024,6,3.715,3.715,0,0,0-.4.133Zm32.843-52.7c0,1.095,0,2.135,0,3.175,0,1.534-.578,2.12-2.111,2.12q-10.943,0-21.886,0c-1.514,0-2.048-.551-2.049-2.093,0-1.059,0-2.117,0-3.189-2.17,0-4.256,0-6.341,0a.982.982,0,0,0-.243.056,3.44,3.44,0,0,0-2.562,3.564q0,21.385,0,42.769c0,.146,0,.293,0,.439a2.6,2.6,0,0,0,1.367,2.246,4.479,4.479,0,0,0,2.41.531q18.374-.005,36.749,0c.209,0,.418,0,.627-.011a3.011,3.011,0,0,0,3.182-3.362q0-21.2,0-42.393c0-.188.006-.377,0-.564a3.308,3.308,0,0,0-2.964-3.268C118.191-1038.49,116.162-1038.431,114.034-1038.431Zm-22.919,2.188h19.772v-6.065h-3.8c-1.305,0-1.725-.32-2.087-1.59a4.227,4.227,0,0,0-5.2-3.032,4.34,4.34,0,0,0-3.042,3.134,1.693,1.693,0,0,1-1.975,1.488H91.116Z" transform="translate(0 0)" fill="#00da5d"/>
    <path id="Path_39780" data-name="Path 39780" d="M199.721-920.525q4.261,0,8.522,0c1.089,0,1.764.571,1.784,1.5a1.551,1.551,0,0,1-1.758,1.6q-8.554.01-17.108,0a1.584,1.584,0,0,1-1.765-1.54c-.009-.943.692-1.551,1.8-1.551Q195.459-920.528,199.721-920.525Z" transform="translate(-91.444 -104.209)" fill="#00da5d"/>
    <path id="Path_39781" data-name="Path 39781" d="M199.677-795.174q4.324,0,8.648,0A1.541,1.541,0,0,1,210-793.825a1.493,1.493,0,0,1-1.227,1.7,3.249,3.249,0,0,1-.684.056q-8.4,0-16.795,0c-.994,0-1.633-.382-1.846-1.087a1.543,1.543,0,0,1,1.581-2.011C193.912-795.182,196.795-795.174,199.677-795.174Z" transform="translate(-91.426 -205.098)" fill="#00da5d"/>
    <path id="Path_39782" data-name="Path 39782" d="M199.725-854.605c-2.924,0-5.848,0-8.772,0a1.515,1.515,0,0,1-1.491-1.027,1.528,1.528,0,0,1,.511-1.687,1.27,1.27,0,0,1,.672-.291q9.052-.025,18.1,0a1.36,1.36,0,0,1,1.265,1.33,1.5,1.5,0,0,1-1.084,1.624,3.377,3.377,0,0,1-.808.055q-4.2.005-8.4,0Z" transform="translate(-91.436 -154.832)" fill="#00da5d"/>
    <path id="Path_39783" data-name="Path 39783" d="M119.791-934.914c1.461-1.39,3.014-2.873,4.573-4.349a1.542,1.542,0,0,1,1.873-.422,1.48,1.48,0,0,1,.476,2.445q-3.01,2.923-6.095,5.77a1.367,1.367,0,0,1-2.021-.074c-1.052-1.045-2.093-2.1-3.112-3.177a1.594,1.594,0,0,1-.039-2.255,1.577,1.577,0,0,1,2.24.147C118.355-936.2,119.044-935.591,119.791-934.914Z" transform="translate(-31.563 -88.659)" fill="#00da5d"/>
    <path id="Path_39784" data-name="Path 39784" d="M119.789-872.123c1.116-1.06,2.3-2.179,3.473-3.3.409-.389.8-.793,1.224-1.17a1.559,1.559,0,0,1,2.288.061,1.438,1.438,0,0,1-.139,2.163q-2.9,2.778-5.818,5.529a1.5,1.5,0,0,1-2.319-.048q-1.477-1.493-2.93-3.01a1.629,1.629,0,0,1-.111-2.3,1.553,1.553,0,0,1,2.28.172C118.4-873.4,119.076-872.784,119.789-872.123Z" transform="translate(-31.589 -139.192)" fill="#00da5d"/>
    <path id="Path_39785" data-name="Path 39785" d="M119.807-809.5c1.492-1.419,3.057-2.921,4.637-4.406a1.551,1.551,0,0,1,2.546.309,1.38,1.38,0,0,1-.258,1.774q-3,2.885-6.048,5.728a1.406,1.406,0,0,1-2.117-.09q-1.5-1.507-2.98-3.042a1.63,1.63,0,0,1-.11-2.348,1.6,1.6,0,0,1,2.284.2C118.41-810.748,119.084-810.155,119.807-809.5Z" transform="translate(-31.588 -189.605)" fill="#00da5d"/>
  </g>
</svg>
