<svg xmlns="http://www.w3.org/2000/svg" width="30" height="30" viewBox="0 0 30 30">
  <g id="CrossToggle" transform="translate(0.305 0.305)">
    <circle id="Ellipse_23" data-name="Ellipse 23" cx="15" cy="15" r="15" transform="translate(-0.305 -0.305)" fill="#00da5d"/>
    <g id="Group_4529" data-name="Group 4529" transform="translate(8.673 8.738)">
      <g id="Group_4528" data-name="Group 4528">
        <path id="Path_41852" data-name="Path 41852" d="M106.5,242.3a1.474,1.474,0,0,1,.43-.712q1.912-1.9,3.814-3.811c.144-.145.148-.113,0-.258q-1.927-1.927-3.853-3.855a1.149,1.149,0,1,1,1.612-1.638q.958.952,1.915,1.906c.664.66,1.33,1.317,1.991,1.979.081.081.125.077.2,0q1.919-1.926,3.845-3.847a1.149,1.149,0,1,1,1.646,1.6l-3.854,3.854c-.111.111-.11.111,0,.222q1.97,1.959,3.939,3.918a1.106,1.106,0,0,1,.277,1.211,1.093,1.093,0,0,1-1.021.731,1.341,1.341,0,0,1-1.05-.428q-1.886-1.9-3.785-3.79c-.113-.113-.113-.113-.224,0-1.288,1.287-2.58,2.57-3.86,3.865a1.351,1.351,0,0,1-1.449.243.984.984,0,0,1-.519-.578c-.023-.062-.042-.127-.062-.19Z" transform="translate(-106.5 -231.695)" fill="#fff" stroke="#fff" stroke-width="0.75"/>
      </g>
    </g>
  </g>
</svg>
