<svg xmlns="http://www.w3.org/2000/svg" width="28.295" height="31.477" viewBox="0 0 28.295 31.477">
  <path id="Path_68" data-name="Path 68" d="M30.933,12.826,18.65.543a1.867,1.867,0,0,0-2.633,0L14.9,1.659a1.848,1.848,0,0,0-.543,1.316A1.884,1.884,0,0,0,14.9,4.306l7.166,7.181H1.837A1.817,1.817,0,0,0,0,13.318V14.9a1.886,1.886,0,0,0,1.837,1.911H22.15L14.9,24.028a1.844,1.844,0,0,0,0,2.614l1.115,1.112a1.867,1.867,0,0,0,2.633,0L30.934,15.468a1.877,1.877,0,0,0,0-2.642Z" transform="translate(0 31.477) rotate(-90)" fill="#fff"/>
</svg>
