<svg id="scrollBar" xmlns="http://www.w3.org/2000/svg" width="79" height="79" viewBox="0 0 79 79">
  <rect id="Rectangle_24" data-name="Rectangle 24" width="79" height="79" rx="18" fill="#00da5d"/>
  <path id="Path_68" data-name="Path 68" d="M33.795,14.013,20.376.593a2.04,2.04,0,0,0-2.876,0L16.281,1.812a2.019,2.019,0,0,0-.594,1.438A2.058,2.058,0,0,0,16.281,4.7l7.829,7.846H2.007A1.985,1.985,0,0,0,0,14.55v1.723a2.061,2.061,0,0,0,2.007,2.088H24.2l-7.917,7.89a2.014,2.014,0,0,0,0,2.856L17.5,30.321a2.04,2.04,0,0,0,2.876,0L33.8,16.9a2.051,2.051,0,0,0,0-2.887Z" transform="translate(24.043 56.694) rotate(-90)" fill="#fff"/>
</svg>
