<svg xmlns="http://www.w3.org/2000/svg" width="48.151" height="16.491" viewBox="0 0 48.151 16.491">
  <path id="Path_108" data-name="Path 108" d="M46.853,48.368l-6.725-6.725a1.022,1.022,0,0,0-1.441,0l-.611.611a1.012,1.012,0,0,0-.3.721,1.032,1.032,0,0,0,.3.729L42,47.635H1.006a1,1,0,0,0-1.006,1V49.5a1.033,1.033,0,0,0,1.006,1.046H42.044L38.077,54.5a1.009,1.009,0,0,0,0,1.431l.611.609a1.022,1.022,0,0,0,1.441,0l6.725-6.725a1.028,1.028,0,0,0,0-1.447Z" transform="translate(0.5 -40.846)" fill="#00da5d" stroke="#00da5d" stroke-width="1"/>
</svg>
