<svg xmlns="http://www.w3.org/2000/svg" width="69.624" height="59.009" viewBox="0 0 69.624 59.009">
  <g id="Group_4480" data-name="Group 4480" transform="translate(813.737 862.539)">
    <path id="Path_39763" data-name="Path 39763" d="M-744.113-819.015a2.706,2.706,0,0,0-.144.3,3.413,3.413,0,0,1-3.381,2.444c-3.263.018-6.526.006-9.79,0a1.811,1.811,0,0,1-.473-.035.943.943,0,0,1-.762-.985.971.971,0,0,1,.834-1.005,2.858,2.858,0,0,1,.677-.028q4.691,0,9.382,0a1.424,1.424,0,0,0,1.608-1.454c.028-2.469.01-4.938.01-7.461H-811.7v.785q0,3.161,0,6.323c0,1.3.511,1.809,1.809,1.809h47.59c1.1,0,1.586.316,1.591,1.031s-.468,1.024-1.584,1.024h-9.666a6.069,6.069,0,0,0,.169,3.848,10.5,10.5,0,0,0,1.163,1.976,2.7,2.7,0,0,0,2.574,1.259,3.2,3.2,0,0,1,3.527,2.455c.146.4.3.8.427,1.215a1.484,1.484,0,0,1-1.279,1.972,4.425,4.425,0,0,1-.543.011q-13.019,0-26.038-.011a2.656,2.656,0,0,1-1.224-.288,1.2,1.2,0,0,1-.633-1.386,12.491,12.491,0,0,1,.971-2.521,3.15,3.15,0,0,1,2.544-1.474c.755-.108,1.574.281,2.264-.37a6.5,6.5,0,0,0,2.175-3.517,15.624,15.624,0,0,0,.135-2.428c.013-.536-.21-.76-.819-.758q-11.727.036-23.455.014a3.456,3.456,0,0,1-3.651-2.707,4.107,4.107,0,0,1-.079-.943q-.005-19.444,0-38.888a3.49,3.49,0,0,1,3.7-3.7q14.243-.008,28.486,0c10.968,0,21.937.031,32.9-.026,2.162-.011,3.743.613,4.528,2.727Zm-5.869-10.357v-27.211h-57.912v.827q0,8.09,0,16.18a3.165,3.165,0,0,1-.018.678.959.959,0,0,1-1.008.828.96.96,0,0,1-.992-.847,3.1,3.1,0,0,1-.015-.61q0-8.838,0-17.676c0-1.219.287-1.5,1.53-1.5h58.943c1.26,0,1.533.281,1.533,1.568v27.754h1.773v-.634q0-14.277,0-28.554c0-1.377-.491-1.863-1.9-1.863q-30.865,0-61.73,0c-1.449,0-1.922.473-1.923,1.906q0,14.209,0,28.418v.715h1.773c0-.344,0-.637,0-.929,0-1.564-.01-3.127.007-4.691a.963.963,0,0,1,.974-1,.978.978,0,0,1,1.048,1c.019.384,0,.77.005,1.156,0,1.488,0,2.976,0,4.491Zm-33.548,13.137a23.414,23.414,0,0,1-.351,3.705,21.372,21.372,0,0,1-1.393,3.265h12.682a22.2,22.2,0,0,1-1.39-3.326,22.778,22.778,0,0,1-.33-3.644Zm17.139,10.582c-.318-1.232-.614-1.512-1.663-1.513q-10.87-.011-21.739,0c-1.087,0-1.468.373-1.614,1.513Z" transform="translate(0)" fill="#fff"/>
    <path id="Path_39764" data-name="Path 39764" d="M-632.109-649.025c.429,0,.861-.027,1.287.006a1.006,1.006,0,0,1,.994,1,1.012,1.012,0,0,1-.962,1.038,26.286,26.286,0,0,1-2.71-.007.982.982,0,0,1-.921-1.067.965.965,0,0,1,.957-.958c.45-.032.9-.007,1.355-.007Z" transform="translate(-146.799 -174.791)" fill="#fff"/>
    <path id="Path_39765" data-name="Path 39765" d="M-605.858-706.641c-2.74,0-5.481.007-8.221-.008a1.566,1.566,0,0,1-.957-.2,1.275,1.275,0,0,1-.414-.971c.05-.3.409-.6.7-.807.175-.122.481-.072.728-.073q8.221,0,16.443,0c.091,0,.181,0,.272,0a1.1,1.1,0,0,1,1.2,1.036,1.052,1.052,0,0,1-1.189,1.023C-600.151-706.636-603-706.642-605.858-706.641Z" transform="translate(-162.328 -125.934)" fill="#fff"/>
    <path id="Path_39766" data-name="Path 39766" d="M-567.687-730.859c-2.311,0-4.622.005-6.933,0-.785,0-1.3-.484-1.244-1.117a1.043,1.043,0,0,1,1.137-.93c1.473-.013,2.946-.005,4.418-.005,3.149,0,6.3.005,9.448,0,.568,0,1.052.108,1.253.7.244.72-.284,1.351-1.146,1.355C-563.064-730.852-565.376-730.859-567.687-730.859Z" transform="translate(-194.738 -106.117)" fill="#fff"/>
    <path id="Path_39767" data-name="Path 39767" d="M-758.2-732.9q3.228,0,6.455,0c.86,0,1.332.357,1.344.994.012.667-.485,1.058-1.366,1.059q-6.489,0-12.979,0c-.867,0-1.369-.414-1.34-1.083.027-.613.457-.966,1.226-.968C-762.636-732.9-760.416-732.9-758.2-732.9Z" transform="translate(-39.014 -106.135)" fill="#fff"/>
    <path id="Path_39768" data-name="Path 39768" d="M-716.345-755.383h-5.294c-.2,0-.408.006-.61-.011a1,1,0,0,1-1.018-1.038,1.031,1.031,0,0,1,1.064-1.008c.61-.024,1.221-.007,1.832-.007h9.3c.158,0,.317-.006.475,0a1.035,1.035,0,0,1,1.112,1.025.98.98,0,0,1-1.089,1.029c-1.221.022-2.443.008-3.665.009Z" transform="translate(-74.065 -86.031)" fill="#fff"/>
    <path id="Path_39769" data-name="Path 39769" d="M-685.02-706.61c-1.495,0-2.989.005-4.484,0-.889,0-1.3-.34-1.3-1.024s.447-1.036,1.305-1.037q4.484-.006,8.968,0c.091,0,.182,0,.272,0a1.021,1.021,0,0,1,1.03,1.038.954.954,0,0,1-1.034,1.01c-1.585.023-3.17.007-4.755.007Z" transform="translate(-100.641 -125.965)" fill="#fff"/>
    <path id="Path_39770" data-name="Path 39770" d="M-745.1-811.634c-.94-.028-1.457-.8-1.092-1.47,1.023-1.862,2.091-3.7,3.172-5.53a.959.959,0,0,1,1.364-.337.963.963,0,0,1,.388,1.347c-1.026,1.835-2.069,3.662-3.146,5.467C-744.576-811.884-744.954-811.74-745.1-811.634Z" transform="translate(-55.201 -35.543)" fill="#fff"/>
    <path id="Path_39771" data-name="Path 39771" d="M-767.87-810.927c.322.377.616.692.876,1.032a1.039,1.039,0,0,1-.1,1.461,1.018,1.018,0,0,1-1.458-.134c-.507-.548-.99-1.118-1.464-1.7a.949.949,0,0,1-.022-1.3c.487-.6.982-1.186,1.506-1.747a.979.979,0,0,1,1.451-.1,1.036,1.036,0,0,1,.077,1.462c-.134.181-.294.344-.44.517C-767.578-811.281-767.706-811.125-767.87-810.927Z" transform="translate(-35.569 -39.992)" fill="#fff"/>
    <path id="Path_39772" data-name="Path 39772" d="M-712.239-810.934c-.307-.359-.6-.674-.861-1.013a1.03,1.03,0,0,1,.074-1.462.974.974,0,0,1,1.45.093c.512.543.987,1.12,1.468,1.692a1,1,0,0,1-.018,1.414c-.467.553-.934,1.108-1.428,1.637a1.014,1.014,0,0,1-1.456.141,1.053,1.053,0,0,1-.063-1.515c.126-.16.265-.309.4-.464S-712.415-810.722-712.239-810.934Z" transform="translate(-82.171 -39.993)" fill="#fff"/>
    <path id="Path_39773" data-name="Path 39773" d="M-763.278-755.407c-.587,0-1.175.021-1.761-.006a1,1,0,0,1-1.049-1.007,1.021,1.021,0,0,1,1.036-1.035c1.2-.026,2.394-.028,3.59,0a1,1,0,0,1,1.006,1.052,1,1,0,0,1-.993.989,1.352,1.352,0,0,1-.135.008h-1.694Z" transform="translate(-39.009 -86.015)" fill="#fff"/>
    <path id="Path_39774" data-name="Path 39774" d="M-763.362-706.654c-.565,0-1.13.021-1.693-.006a1,1,0,0,1-1.033-1.021,1.028,1.028,0,0,1,1.051-1.022q1.761-.039,3.522,0a1.011,1.011,0,0,1,1.058,1.073.993.993,0,0,1-1.076.975c-.609.022-1.219,0-1.829,0Z" transform="translate(-39.009 -125.927)" fill="#fff"/>
    <path id="Path_39775" data-name="Path 39775" d="M-725.6-706.649c-.609,0-1.22.025-1.827-.006a.949.949,0,0,1-.985-.985.974.974,0,0,1,.938-1.043q1.86-.058,3.722,0a.969.969,0,0,1,.949,1.03.949.949,0,0,1-.969,1C-724.381-706.625-724.991-706.65-725.6-706.649Z" transform="translate(-69.853 -125.935)" fill="#fff"/>
    <path id="Path_39776" data-name="Path 39776" d="M-662.29-732.906c.564,0,1.128-.014,1.692,0a1,1,0,0,1,1.062.984,1.019,1.019,0,0,1-1.075,1.056q-1.691.034-3.383,0a1.053,1.053,0,0,1-1.077-1.07,1.045,1.045,0,0,1,1.09-.974c.045,0,.09,0,.135,0Z" transform="translate(-121.709 -106.124)" fill="#fff"/>
    <path id="Path_39777" data-name="Path 39777" d="M-617.532-732.9c.566,0,1.133-.017,1.7,0a.992.992,0,0,1,1.05,1.007,1.028,1.028,0,0,1-1.046,1.03c-1.132.026-2.265.024-3.4,0a1,1,0,0,1-1.067-1.062.977.977,0,0,1,1.063-.983c.045,0,.09,0,.136,0h1.562Z" transform="translate(-158.368 -106.128)" fill="#fff"/>
  </g>
</svg>
