<svg xmlns="http://www.w3.org/2000/svg" width="32.953" height="26.565" viewBox="0 0 32.953 26.565">
  <g id="CommaTop" transform="translate(-2536.229 2956.712)">
    <path id="Path_63" data-name="Path 63" d="M2545.406-2944.141c.926,0,1.853-.012,2.78,0a2.782,2.782,0,0,1,3.058,3.046q.043,3.943,0,7.886a2.785,2.785,0,0,1-3.062,3.051q-4.468.044-8.937,0a2.761,2.761,0,0,1-3.016-3.079c.039-3.94-.036-7.89.221-11.818a12.087,12.087,0,0,1,4.441-9.092,12.674,12.674,0,0,1,7.5-2.544,1.714,1.714,0,0,1,1.827,1.826q.074,2.539,0,5.081c-.031,1.089-.61,1.632-1.753,1.836A3.5,3.5,0,0,0,2545.406-2944.141Zm-5.724,10.479c2.631,0,5.108.014,7.585-.032.163,0,.45-.459.455-.709.039-1.839.024-3.679.017-5.519a6.32,6.32,0,0,0-.087-.714c-1.346,0-2.629.025-3.91-.007a1.856,1.856,0,0,1-2.055-2.222c.027-.583.062-1.168.146-1.745.378-2.6,1.354-4.829,3.83-6.113,1.186-.615,1.281-.823.93-2.172-3.1.392-5.52,2.728-6.33,6.183C2539.263-2942.443,2539.946-2938.106,2539.682-2933.662Z" transform="translate(0 -0.016)" fill="#fff"/>
    <path id="Path_64" data-name="Path 64" d="M2627.19-2944.156c1.015,0,1.975-.017,2.935,0a2.775,2.775,0,0,1,2.976,3.039q.023,3.944,0,7.888a2.769,2.769,0,0,1-2.97,3.05q-4.557.059-9.115,0a2.642,2.642,0,0,1-2.908-2.64c.023-4.407-.088-8.839.348-13.212.571-5.734,4.11-9.336,9.548-10.418a17.064,17.064,0,0,1,2-.257,1.766,1.766,0,0,1,2.067,1.837c.035,1.694.03,3.389,0,5.083a1.737,1.737,0,0,1-1.5,1.783C2628.2-2947.439,2627.569-2946.742,2627.19-2944.156Zm1.35-8.765c-3.209.385-5.68,2.769-6.45,6.341-.908,4.209-.452,8.484-.457,12.734,0,.024.031.048.074.112h7.829v-6.915h-1.011c-.993,0-1.987.025-2.979-.009-1.276-.043-2.042-.682-2.008-1.832.1-3.309.656-7.038,5-8.718Z" transform="translate(-63.93 0)" fill="#fff"/>
  </g>
</svg>
