<svg xmlns="http://www.w3.org/2000/svg" width="48" height="48" viewBox="0 0 48 48">
  <g id="Group_4469" data-name="Group 4469" transform="translate(-442 -1651)">
    <circle id="Ellipse_22" data-name="Ellipse 22" cx="24" cy="24" r="24" transform="translate(442 1651)" fill="#fff"/>
    <g id="Group_112" data-name="Group 112" transform="translate(933.309 1476.24)">
      <path id="Path_98" data-name="Path 98" d="M-466.406,246.262c.343-.348.676-.691,1.014-1.028a2.3,2.3,0,0,1,3.423,0q1.009,1.006,2.012,2.018a2.292,2.292,0,0,1,.01,3.386,17.2,17.2,0,0,1-1.293,1.244,4.62,4.62,0,0,1-2.9,1,10.017,10.017,0,0,1-4.915-1.291,20.638,20.638,0,0,1-8.925-8.891,11.12,11.12,0,0,1-1.311-4.387,4.807,4.807,0,0,1,1.378-3.861c.311-.321.629-.635.951-.945a2.285,2.285,0,0,1,3.266.005q1.086,1.064,2.153,2.147a2.277,2.277,0,0,1,.05,3.214c-.368.4-.777.754-1.157,1.12A20.047,20.047,0,0,0-466.406,246.262Zm2.212,5.078a3.4,3.4,0,0,0,2.225-.868c.325-.295.629-.612.937-.925a.754.754,0,0,0,0-1.177q-1.022-1.027-2.049-2.049a.773.773,0,0,0-1.2,0c-.459.455-.914.915-1.372,1.371a.8.8,0,0,1-1.153.146,21.491,21.491,0,0,1-7.391-7.387.807.807,0,0,1,.146-1.173c.462-.464.929-.923,1.387-1.39a.757.757,0,0,0,.007-1.145q-1.041-1.059-2.09-2.11a.765.765,0,0,0-1.165-.013c-.3.285-.6.572-.895.866a3.24,3.24,0,0,0-.953,2.589,8.981,8.981,0,0,0,.97,3.477,19.153,19.153,0,0,0,8.827,8.814A9.172,9.172,0,0,0-464.193,251.34Z" transform="translate(0 -43.12)" fill="#00da5d"/>
      <path id="Path_99" data-name="Path 99" d="M-298.223,197.973c0,.1,0,.208,0,.311a.774.774,0,0,1-.769.829.772.772,0,0,1-.762-.812,9.768,9.768,0,0,0-1.072-4.516,9.779,9.779,0,0,0-7.32-5.352,13.661,13.661,0,0,0-1.546-.138.773.773,0,0,1-.792-.778.758.758,0,0,1,.81-.756,11.5,11.5,0,0,1,10.726,7.453A11.473,11.473,0,0,1-298.223,197.973Z" transform="translate(-158.043)" fill="#00da5d"/>
      <path id="Path_100" data-name="Path 100" d="M-295.371,268.58a2.794,2.794,0,0,1-.071.468.763.763,0,0,1-.806.508.763.763,0,0,1-.673-.725,4.707,4.707,0,0,0-.459-2.058,4.607,4.607,0,0,0-4.116-2.662.763.763,0,0,1-.791-.7.749.749,0,0,1,.8-.831,6.039,6.039,0,0,1,5.416,3.338A6.086,6.086,0,0,1-295.371,268.58Z" transform="translate(-165.714 -70.975)" fill="#00da5d"/>
    </g>
  </g>
</svg>
