<svg xmlns="http://www.w3.org/2000/svg" width="40.888" height="40.902" viewBox="0 0 40.888 40.902">
  <g id="Group_80" data-name="Group 80" transform="translate(418.248 302.4)">
    <path id="Path_69" data-name="Path 69" d="M-377.36-280.75c-.1.774-.175,1.555-.319,2.321a20.152,20.152,0,0,1-9.712,14.055,19.445,19.445,0,0,1-11.28,2.85,20.022,20.022,0,0,1-14.485-6.939,19.512,19.512,0,0,1-4.993-11.429,19.973,19.973,0,0,1,6.03-16.634,19.91,19.91,0,0,1,11.057-5.613c.68-.114,1.368-.176,2.052-.261h2.4a2.191,2.191,0,0,0,.308.066,19.464,19.464,0,0,1,8.923,2.814,20.188,20.188,0,0,1,9.7,14.053c.143.767.214,1.547.318,2.32Zm-1.7-1.182A18.8,18.8,0,0,0-397.8-300.7a18.8,18.8,0,0,0-18.768,18.735A18.8,18.8,0,0,0-397.828-263.2,18.8,18.8,0,0,0-379.06-281.932Z" transform="translate(0 0)" fill="#00da5d"/>
    <path id="Path_70" data-name="Path 70" d="M-264.83-174.336c0-2.476,0-4.952,0-7.428a.97.97,0,0,1,.463-.984.967.967,0,0,1,1.044.149q5.771,3.716,11.546,7.425c.792.509.79,1.174,0,1.685q-5.756,3.7-11.513,7.4a.991.991,0,0,1-1.077.166,1,1,0,0,1-.459-1.027C-264.827-169.411-264.83-171.874-264.83-174.336Zm1.709,6.109,9.5-6.107-9.5-6.1Z" transform="translate(-138.094 -107.614)" fill="#00da5d"/>
  </g>
</svg>
