<svg xmlns="http://www.w3.org/2000/svg" width="13.717" height="32.048" viewBox="0 0 13.717 32.048">
  <path id="Path_39809" data-name="Path 39809" d="M41.487,47.564l-5.954-5.955a.9.9,0,0,0-1.276,0l-.541.541a.9.9,0,0,0-.263.638.913.913,0,0,0,.263.646l3.474,3.481-26.6.278a.881.881,0,0,0-.891.887v.764a.914.914,0,0,0,.891.927l26.636-.278-3.513,3.5a.894.894,0,0,0,0,1.267l.541.539a.905.905,0,0,0,1.276,0l5.954-5.954a.91.91,0,0,0,0-1.281Z" transform="translate(55.063 -9.702) rotate(90)" fill="#00da5d"/>
</svg>
