<svg xmlns="http://www.w3.org/2000/svg" width="7.989" height="15.936" viewBox="0 0 7.989 15.936">
  <path id="Path_12" data-name="Path 12" d="M153.09,401.589c.3.027.6.059.895.08.105.008.144.047.144.153q0,1.135,0,2.27c0,.114-.04.155-.154.153-.389,0-.778-.006-1.166,0a3.667,3.667,0,0,0-.557.04,1.006,1.006,0,0,0-.923,1.113c-.008.663,0,1.327-.006,1.99,0,.134.051.165.174.164.736,0,1.472,0,2.208-.005.146,0,.191.042.172.185-.09.7-.175,1.4-.262,2.094-.017.133-.04.267-.048.4s-.056.18-.192.178c-.612-.006-1.223,0-1.835,0-.214,0-.215,0-.215.211q0,3.335,0,6.671c0,.24,0,.241-.237.241h-2.426c-.215,0-.216,0-.216-.214q0-3.343,0-6.686c0-.222,0-.223-.219-.223h-1.881c-.2,0-.2,0-.2-.209,0-.814,0-1.628,0-2.441,0-.153.038-.207.2-.2.643.009,1.285,0,1.928.007.148,0,.183-.049.182-.188-.005-.736-.013-1.472,0-2.208a4.075,4.075,0,0,1,.482-1.941,3.141,3.141,0,0,1,2.435-1.606c.035-.005.07-.015.105-.022Z" transform="translate(-146.14 -401.589)" fill="#fff"/>
</svg>
