<svg xmlns="http://www.w3.org/2000/svg" width="13.859" height="15.25" viewBox="0 0 13.859 15.25">
  <path id="Path_53" data-name="Path 53" d="M-400.317,90.525c-.367-.065-.7-.115-1.034-.186a4.764,4.764,0,0,1-2.1-.951,4.008,4.008,0,0,1-1.367-2.591,5.808,5.808,0,0,1-.011-2,3.611,3.611,0,0,1,.83-1.7.294.294,0,0,0,.072-.328,3.468,3.468,0,0,1,.116-2.35.242.242,0,0,1,.194-.12,4.576,4.576,0,0,1,.787.124,6.652,6.652,0,0,1,1.7.826.368.368,0,0,0,.253.048,9.762,9.762,0,0,1,4.774,0,.356.356,0,0,0,.31-.057,5.977,5.977,0,0,1,1.97-.9c.6-.129.669-.083.814.5a3.608,3.608,0,0,1-.033,2,.217.217,0,0,0,.038.177,4.019,4.019,0,0,1,.943,3.117,5.893,5.893,0,0,1-.4,1.846,3.783,3.783,0,0,1-2.586,2.2c-.475.137-.97.2-1.455.3-.034.007-.069.011-.131.021.074.088.135.154.19.226a2.212,2.212,0,0,1,.452,1.318c.017.981.008,1.963,0,2.944a.518.518,0,0,0,.29.532h-5.642c.337-.084.385-.32.379-.606-.011-.5,0-1,0-1.523-.288.032-.549.07-.812.088a2.841,2.841,0,0,1-1.685-.358,2.15,2.15,0,0,1-.917-1.068,2.957,2.957,0,0,0-1.2-1.521,1.062,1.062,0,0,1-.261-.236c-.1-.116-.069-.233.078-.248a1.977,1.977,0,0,1,.693.022,2.008,2.008,0,0,1,1.186.962,2.061,2.061,0,0,0,1.281,1.01,2.508,2.508,0,0,0,1.566-.165.187.187,0,0,0,.1-.112A2.249,2.249,0,0,1-400.317,90.525Z" transform="translate(405.899 -80.277)" fill="#fff"/>
</svg>
