<svg xmlns="http://www.w3.org/2000/svg" width="13.842" height="13.835" viewBox="0 0 13.842 13.835">
  <g id="Group_49" data-name="Group 49" transform="translate(0 0)">
    <path id="Path_49" data-name="Path 49" d="M-858.635-424.5c.125.035.253.062.374.107a1.661,1.661,0,0,1,1.056,1.87,1.681,1.681,0,0,1-1.624,1.363,1.685,1.685,0,0,1-1.642-1.358c-.008-.039-.02-.078-.029-.117v-.406c.009-.03.02-.059.026-.09a1.666,1.666,0,0,1,.657-1.049,1.978,1.978,0,0,1,.777-.321Z" transform="translate(860.5 424.5)" fill="#fff"/>
    <path id="Path_50" data-name="Path 50" d="M-724.438-302.991h2.746v1.248l.044.024a.215.215,0,0,1,.016-.052,2.987,2.987,0,0,1,2.672-1.45,3.848,3.848,0,0,1,1.849.367,2.666,2.666,0,0,1,1.343,1.713,6.56,6.56,0,0,1,.26,1.88c.011,1.815.006,3.631.007,5.447,0,.013,0,.027,0,.051h-2.862v-.152c0-1.559,0-3.117-.007-4.676a5.079,5.079,0,0,0-.1-.965,1.315,1.315,0,0,0-1.607-1.131,1.454,1.454,0,0,0-1.416,1.364,6.645,6.645,0,0,0-.083,1.035c-.009,1.455,0,2.91,0,4.365v.165h-2.857Z" transform="translate(729.343 307.594)" fill="#fff"/>
    <path id="Path_51" data-name="Path 51" d="M-851.072-296.776v9.231h-2.856v-9.231Z" transform="translate(854.165 301.38)" fill="#fff"/>
  </g>
</svg>
