<svg xmlns="http://www.w3.org/2000/svg" width="21.501" height="21.504" viewBox="0 0 21.501 21.504">
  <path id="Path_54" data-name="Path 54" d="M-87.613-1189.688h-1.094c-.284-.031-.568-.057-.851-.1a9.779,9.779,0,0,1-3.958-1.447.4.4,0,0,0-.378-.052c-1.142.372-2.287.735-3.431,1.1-.063.02-.126.039-.215.065.4-1.188.784-2.339,1.175-3.488a.4.4,0,0,0-.052-.41,9.635,9.635,0,0,1-1.625-3.948c-.071-.415-.106-.835-.157-1.253v-1.054c.012-.069.026-.138.036-.208.064-.437.1-.879.2-1.31a9.7,9.7,0,0,1,3.752-5.868,9.707,9.707,0,0,1,8.118-1.795,9.658,9.658,0,0,1,5.825,3.685,9.725,9.725,0,0,1,2.023,7.081,9.66,9.66,0,0,1-2.426,5.575,9.817,9.817,0,0,1-5.8,3.267C-86.852-1189.776-87.234-1189.739-87.613-1189.688Zm2.637-4.364a6.62,6.62,0,0,0,.869-.171,2.364,2.364,0,0,0,1.935-2.473.418.418,0,0,0-.259-.434c-.739-.352-1.474-.714-2.216-1.06a.6.6,0,0,0-.876.235c-.194.261-.384.525-.584.781a.679.679,0,0,1-.967.253,7.882,7.882,0,0,1-3.774-3.287c-.224-.361-.213-.469.074-.792.181-.2.37-.4.539-.617a.665.665,0,0,0,.192-.7c-.345-.827-.693-1.653-1.051-2.474a.459.459,0,0,0-.25-.25,1.661,1.661,0,0,0-1.512.2,3.1,3.1,0,0,0-1.1,3.076,5.605,5.605,0,0,0,1.015,2.3,15.63,15.63,0,0,0,2.7,3.068,10.543,10.543,0,0,0,3.969,2.057C-85.835-1194.213-85.385-1194.142-84.976-1194.052Z" transform="translate(98.95 1210.442)" fill="none" stroke="#fff" stroke-width="1.5"/>
</svg>
